<?xml version="1.0" encoding="UTF-8"?>
<svg xmlns="http://www.w3.org/2000/svg" xmlns:xlink="http://www.w3.org/1999/xlink" width="20pt" height="20pt" viewBox="0 0 20 20" version="1.1">
<defs>
<clipPath id="clip1">
  <path d="M 20 10 C 20 15.523438 15.523438 20 10 20 C 4.476563 20 0 15.523438 0 10 C 0 4.476563 4.476563 0 10 0 C 15.523438 0 20 4.476563 20 10 Z M 20 10 "/>
</clipPath>
</defs>
<g id="surface1">
<g clip-path="url(#clip1)" clip-rule="evenodd">
<path style=" stroke:none;fill-rule:nonzero;fill:rgb(95.832825%,95.832825%,95.832825%);fill-opacity:1;" d="M 18 10 C 18 14.417969 14.417969 18 10 18 L 10 22 C 16.628906 22 22 16.628906 22 10 Z M 10 18 C 5.582031 18 2 14.417969 2 10 L -2 10 C -2 16.628906 3.371094 22 10 22 Z M 2 10 C 2 5.582031 5.582031 2 10 2 L 10 -2 C 3.371094 -2 -2 3.371094 -2 10 Z M 10 2 C 14.417969 2 18 5.582031 18 10 L 22 10 C 22 3.371094 16.628906 -2 10 -2 Z M 10 2 "/>
</g>
</g>
</svg>
