<?xml version="1.0" encoding="UTF-8"?>
<svg xmlns="http://www.w3.org/2000/svg" xmlns:xlink="http://www.w3.org/1999/xlink" width="13.5pt" height="13.5pt" viewBox="0 0 13.5 13.5" version="1.1">
<g id="surface1">
<path style=" stroke:none;fill-rule:nonzero;fill:rgb(48.332214%,48.332214%,48.332214%);fill-opacity:1;" d="M 7.5 3.417969 C 7.5 3.003906 7.164063 2.667969 6.75 2.667969 C 6.335938 2.667969 6 3.003906 6 3.417969 Z M 6.75 6.75 L 6 6.75 C 6 6.949219 6.078125 7.140625 6.21875 7.28125 Z M 8.21875 9.28125 C 8.511719 9.574219 8.988281 9.574219 9.28125 9.28125 C 9.574219 8.988281 9.574219 8.511719 9.28125 8.21875 Z M 12 6.75 C 12 9.648438 9.648438 12 6.75 12 L 6.75 13.5 C 10.476563 13.5 13.5 10.476563 13.5 6.75 Z M 6.75 12 C 3.851563 12 1.5 9.648438 1.5 6.75 L 0 6.75 C 0 10.476563 3.023438 13.5 6.75 13.5 Z M 1.5 6.75 C 1.5 3.851563 3.851563 1.5 6.75 1.5 L 6.75 0 C 3.023438 0 0 3.023438 0 6.75 Z M 6.75 1.5 C 9.648438 1.5 12 3.851563 12 6.75 L 13.5 6.75 C 13.5 3.023438 10.476563 0 6.75 0 Z M 6 3.417969 L 6 6.75 L 7.5 6.75 L 7.5 3.417969 Z M 6.21875 7.28125 L 8.21875 9.28125 L 9.28125 8.21875 L 7.28125 6.21875 Z M 6.21875 7.28125 "/>
</g>
</svg>
