<?xml version="1.0" encoding="UTF-8" standalone="no"?>
<!DOCTYPE svg PUBLIC "-//W3C//DTD SVG 1.1//EN" "http://www.w3.org/Graphics/SVG/1.1/DTD/svg11.dtd">
<svg xmlns="http://www.w3.org/2000/svg" xmlns:xlink="http://www.w3.org/1999/xlink" version="1.1" width="8.166656pt" height="12.166672pt" viewBox="0 0 8.166656 12.166672">
<g enable-background="new">
<path transform="matrix(1,0,0,-1,.75,12.952438)" d="M 1.333333 12.202438 L 1.333333 12.952438 L 1.333333 12.202438 Z M 5.333333 12.202438 L 5.333333 12.952438 L 5.333333 12.202438 Z M 6.666667 1.535771 L 6.280795 .892652 C 6.512493 .753633 6.801059 .749992 7.036191 .883121 C 7.271322 1.016251 7.416667 1.265568 7.416667 1.535771 L 6.666667 1.535771 Z M 3.333333 3.535771 L 3.719205 4.178891 C 3.481694 4.321398 3.184973 4.321398 2.947462 4.178891 L 3.333333 3.535771 Z M 0 1.535771 L -.75 1.535771 C -.75 1.265568 -.604656 1.016251 -.369524 .883121 C -.134393 .749992 .154174 .753633 .385872 .892652 L 0 1.535771 Z M 1.333333 11.452438 L 5.333333 11.452438 L 5.333333 12.952438 L 1.333333 12.952438 L 1.333333 11.452438 Z M 5.333333 11.452438 C 5.488043 11.452438 5.636416 11.390981 5.745812 11.281584 L 6.806472 12.342244 C 6.415771 12.732944 5.885868 12.952438 5.333333 12.952438 L 5.333333 11.452438 Z M 5.745812 11.281584 C 5.855209 11.172188 5.916667 11.023814 5.916667 10.869105 L 7.416667 10.869105 C 7.416667 11.421639 7.197173 11.951544 6.806472 12.342244 L 5.745812 11.281584 Z M 5.916667 10.869105 L 5.916667 1.535771 L 7.416667 1.535771 L 7.416667 10.869105 L 5.916667 10.869105 Z M 7.052539 2.178891 L 3.719205 4.178891 L 2.947462 2.892652 L 6.280795 .892652 L 7.052539 2.178891 Z M 2.947462 4.178891 L -.385872 2.178891 L .385872 .892652 L 3.719205 2.892652 L 2.947462 4.178891 Z M .75 1.535771 L .75 10.869105 L -.75 10.869105 L -.75 1.535771 L .75 1.535771 Z M .75 10.869105 C .75 11.023815 .811458 11.172188 .920854 11.281584 L -.139806 12.342244 C -.530507 11.951544 -.75 11.421639 -.75 10.869105 L .75 10.869105 Z M .920854 11.281584 C 1.03025 11.39098 1.178624 11.452438 1.333333 11.452438 L 1.333333 12.952438 C .780799 12.952438 .250895 12.732945 -.139806 12.342244 L .920854 11.281584 Z " fill="#ff756e"/>
</g>
</svg>
