<?xml version="1.0" encoding="UTF-8"?>
<svg xmlns="http://www.w3.org/2000/svg" xmlns:xlink="http://www.w3.org/1999/xlink" width="10.666656pt" height="10.666672pt" viewBox="0 0 10.666656 10.666672" version="1.1">
<g id="surface1">
<path style=" stroke:none;fill-rule:evenodd;fill:rgb(100%,40.783691%,38.038635%);fill-opacity:1;" d="M 0 10.667969 L 0 2 C 0 1.46875 0.210938 0.960938 0.585938 0.585938 C 0.960938 0.210938 1.46875 0 2 0 L 8.667969 0 C 9.195313 0 9.707031 0.210938 10.082031 0.585938 C 10.457031 0.960938 10.667969 1.46875 10.667969 2 L 10.667969 6 C 10.667969 6.53125 10.457031 7.039063 10.082031 7.414063 C 9.707031 7.789063 9.195313 8 8.667969 8 L 2.667969 8 Z M 2.167969 2.667969 C 2.167969 2.390625 2.390625 2.167969 2.667969 2.167969 L 8 2.167969 C 8.277344 2.167969 8.5 2.390625 8.5 2.667969 C 8.5 2.941406 8.277344 3.167969 8 3.167969 L 2.667969 3.167969 C 2.390625 3.167969 2.167969 2.941406 2.167969 2.667969 Z M 2.667969 4.832031 C 2.390625 4.832031 2.167969 5.058594 2.167969 5.332031 C 2.167969 5.609375 2.390625 5.832031 2.667969 5.832031 L 6.667969 5.832031 C 6.941406 5.832031 7.167969 5.609375 7.167969 5.332031 C 7.167969 5.058594 6.941406 4.832031 6.667969 4.832031 Z M 2.667969 4.832031 "/>
</g>
</svg>
