<?xml version="1.0" encoding="UTF-8"?>
<svg xmlns="http://www.w3.org/2000/svg" xmlns:xlink="http://www.w3.org/1999/xlink" width="13.080002pt" height="12pt" viewBox="0 0 13.080002 12" version="1.1">
<defs>
<clipPath id="clip1">
  <path d="M 4 0 L 13.078125 0 L 13.078125 12 L 4 12 Z M 4 0 "/>
</clipPath>
</defs>
<g id="surface1">
<path style=" stroke:none;fill-rule:nonzero;fill:rgb(100%,40.783691%,38.038635%);fill-opacity:1;" d="M 0 8.667969 L 0 5.199219 C 0 4.265625 0.398438 3.933594 1.332031 3.933594 L 2 3.933594 C 2.933594 3.933594 3.332031 4.265625 3.332031 5.199219 L 3.332031 8.667969 C 3.332031 9.601563 2.933594 9.933594 2 9.933594 L 1.332031 9.933594 C 0.398438 9.933594 0 9.601563 0 8.667969 Z M 0 8.667969 "/>
<g clip-path="url(#clip1)" clip-rule="nonzero">
<path style=" stroke:none;fill-rule:nonzero;fill:rgb(100%,40.783691%,38.038635%);fill-opacity:1;" d="M 5.914063 11 C 6.140625 11.257813 7.570313 12 7.910156 12 L 10.058594 12 C 10.738281 12 11.472656 11.421875 11.644531 10.652344 L 13 5.96875 C 13.285156 5.070313 12.773438 4.300781 11.925781 4.300781 L 9.664063 4.300781 C 9.324219 4.300781 9.039063 3.980469 9.097656 3.53125 L 9.378906 1.476563 C 9.492188 0.898438 9.152344 0.257813 8.644531 0.0664063 C 8.191406 -0.128906 7.625 0.128906 7.398438 0.515625 L 4.683594 3.664063 C 4.53125 3.84375 4.386719 4.03125 4.292969 4.246094 C 4.152344 4.578125 4.078125 4.933594 4.078125 5.292969 L 4.078125 9 C 4.078125 9.765625 5.335938 10.492188 5.914063 11 Z M 5.914063 11 "/>
</g>
</g>
</svg>
